Coordinates
version=1
nRows=13
nColumns=36
inDegrees=yes

Units are S.I. units (second, meters, Newtons, ...)
If the header above contains a line with 'inDegrees', this indicates whether rotational values are in degrees (yes) or radians (no).

endheader
time	pelvis_tilt	pelvis_list	pelvis_rotation	pelvis_tx	pelvis_ty	pelvis_tz	hip_flexion_r	hip_adduction_r	hip_rotation_r	knee_angle_r	knee_angle_r_beta	ankle_angle_r	subtalar_angle_r	mtp_angle_r	hip_flexion_l	hip_adduction_l	hip_rotation_l	knee_angle_l	knee_angle_l_beta	ankle_angle_l	subtalar_angle_l	mtp_angle_l	lumbar_extension	lumbar_bending	lumbar_rotation	arm_flex_r	arm_add_r	arm_rot_r	elbow_flex_r	pro_sup_r	arm_flex_l	arm_add_l	arm_rot_l	elbow_flex_l	pro_sup_l
      1.16833330	    -25.17137431	      2.40954233	     -4.58598822	      0.22457056	      0.69163514	     -0.05064481	     80.10631429	     -2.01803637	      2.97578071	     89.05382648	      1.55428248	     21.88450168	    -11.82858716	     -7.49999987	     78.17224475	     -4.38929766	      7.46585559	     83.39415889	      1.45550265	     21.33871128	    -19.89920233	     -7.49999987	    -31.06310829	      0.03435487	     -7.58893875	     -4.31818798	     -2.75696506	    -36.42012261	     49.35517981	     86.22667235	      8.79058454	     -5.88991086	    -13.20059870	     28.37918969	     77.72423216
      1.17000000	    -26.11136598	      2.64143807	     -4.45746911	      0.22573984	      0.69171740	     -0.04975550	     80.72992774	     -1.92282372	      3.15589285	     88.79525853	      1.54976962	     22.36862997	    -11.72024637	     -7.49999987	     79.01961368	     -4.36920099	      7.29416137	     83.32460595	      1.45428872	     21.02679315	    -20.11434150	     -7.49999987	    -29.57519222	     -0.27374794	     -8.13047891	     -5.32565701	     -2.46645444	    -36.78090454	     50.43307843	     85.37248775	      7.57566082	     -5.93060398	    -13.54610641	     26.59221058	     76.97167376
      1.17166670	    -26.17388479	      2.67954533	     -4.31751112	      0.23006767	      0.69110621	     -0.05207299	     80.30423802	     -1.96331232	      3.33507750	     88.64138913	      1.54708409	     22.59771260	    -11.77935477	     -7.49999987	     78.84706424	     -4.18326051	      7.29839077	     83.27071056	      1.45334807	     21.07429831	    -20.09597016	     -7.49999987	    -29.41532537	     -0.36131999	     -8.08903105	     -6.06272527	     -2.68689182	    -36.98528524	     50.43346411	     85.37186059	      6.55282851	     -5.72990601	    -13.59158120	     26.13081632	     76.95860923
      1.17333330	    -26.03712809	      2.62860539	     -4.25655146	      0.23298284	      0.69398824	     -0.05215348	     79.43983699	     -1.92128688	      3.39612351	     88.15976204	      1.53867812	     22.98519338	    -12.00340594	     -7.49999987	     78.32724671	     -4.06096978	      7.37177114	     83.06512203	      1.44975987	     21.41450284	    -20.21142086	     -7.49999987	    -29.74397563	     -0.34271347	     -7.89613283	     -6.86797266	     -2.74073664	    -36.93237294	     51.30856109	     84.30743327	      5.35223425	     -5.90457029	    -13.62801888	     26.97338945	     76.13820605
      1.17500000	    -26.36556694	      2.69485669	     -3.85759968	      0.23458698	      0.69283682	     -0.05059329	     79.38708044	     -2.18170600	      3.53125031	     88.10121054	      1.53765620	     23.88196947	    -12.10451933	     -7.49999987	     78.48739246	     -3.68608305	      7.43798392	     83.01595774	      1.44890179	     21.16013640	    -20.33042352	     -7.49999987	    -28.93344974	     -0.36721975	     -8.15945855	     -7.64743641	     -2.58827724	    -37.35722110	     51.75919956	     84.11326418	      4.68270987	     -6.02527946	    -14.13537916	     25.65000342	     75.80621813
      1.17666670	    -26.35361742	      2.62779558	     -3.61365830	      0.23486560	      0.69529832	     -0.04912490	     78.95503281	     -2.05343018	      3.54737583	     87.75814766	      1.53166862	     23.84629504	    -12.63795261	     -7.49999987	     78.25641326	     -3.59868626	      7.45620494	     82.76367094	      1.44449856	     20.80215770	    -20.87516973	     -7.49999987	    -28.89192481	     -0.47966853	     -8.14268165	     -8.06535492	     -2.30044903	    -37.69874429	     51.95758019	     83.48545675	      4.53971168	     -5.99407482	    -14.75051406	     24.50231000	     74.98719865
      1.17833330	    -25.90624574	      2.43313606	     -3.54417934	      0.23811738	      0.69351817	     -0.04866736	     78.01796041	     -1.73778423	      3.54709623	     87.56217921	      1.52824833	     24.33591166	    -12.93957443	     -7.49999987	     77.76004660	     -3.74102112	      7.56581008	     82.89605111	      1.44680903	     21.32992075	    -20.81293084	     -7.49999987	    -29.43567660	     -0.50349320	     -7.90044181	     -8.72203566	     -2.19194922	    -37.59414107	     52.68518277	     82.47313860	      3.53691116	     -6.06190517	    -14.73764917	     25.73158826	     74.26607501
      1.18000000	    -26.30245675	      2.34764141	     -3.42107240	      0.23765808	      0.68918612	     -0.04904411	     78.35704683	     -1.63153153	      3.46434615	     87.76375191	      1.53176643	     25.34885731	    -12.95994010	     -7.49999987	     78.47357224	     -3.68809838	      7.74522375	     83.45580374	      1.45657856	     21.39111462	    -20.95426836	     -7.49999987	    -28.30755810	     -0.58810354	     -7.84112413	     -9.29266982	     -2.32360237	    -37.78277543	     52.18955837	     81.50997486	      3.21480976	     -5.83030935	    -15.62582805	     23.78212072	     72.88496270
      1.18166670	    -25.83848325	      2.20121480	     -3.46987278	      0.23931926	      0.69067531	     -0.04926547	     77.69502719	     -1.33875697	      3.50195349	     87.85573144	      1.53337178	     26.01779103	    -13.46052571	     -7.49999987	     78.04925740	     -3.73401169	      7.88460130	     83.76930579	      1.46205020	     22.00106898	    -20.51082128	     -7.49999987	    -28.77775619	     -0.55900684	     -7.78664915	     -9.68276538	     -2.33518031	    -37.76266948	     53.05509122	     80.36717099	      2.28100020	     -5.82668366	    -15.63011670	     25.45574858	     72.12819379
      1.18333330	    -26.38922106	      2.18389593	     -3.28388693	      0.24174798	      0.69093953	     -0.05018343	     77.88934691	     -1.36245106	      3.48837524	     87.66164895	      1.52998440	     26.55632618	    -13.93975459	     -7.49999987	     78.53495687	     -3.46877930	      8.05765307	     83.81377059	      1.46282626	     21.66597927	    -20.76647464	     -7.49999987	    -27.43274710	     -0.50289535	     -7.71613280	    -10.15761838	     -2.43299033	    -38.14763153	     52.63800441	     81.02897523	      2.29610388	     -5.71311132	    -16.32686457	     23.22191596	     71.84193911
      1.18500000	    -26.53374795	      2.15534827	     -3.20752838	      0.24220856	      0.68996907	     -0.05193082	     77.70578825	     -1.37056651	      3.46854870	     87.47077729	      1.52665306	     27.22760558	    -14.21684328	     -7.49999987	     78.63337157	     -3.26742700	      8.14166089	     83.99228873	      1.46594198	     21.92016340	    -20.64366936	     -7.49999987	    -26.89953549	     -0.35134767	     -7.65010706	    -10.47200277	     -2.55075337	    -38.45034843	     53.01598634	     81.11779652	      1.81439905	     -5.55989654	    -16.61228093	     23.18114457	     71.67999265
      1.18666670	    -26.22263736	      2.13334339	     -3.18784530	      0.24363394	      0.69061755	     -0.05200717	     77.03369378	     -1.30161753	      3.47138061	     87.21887579	      1.52225655	     27.69656038	    -14.60337420	     -7.49999987	     78.21564910	     -3.10747995	      8.20494881	     84.10409966	      1.46789345	     22.24087930	    -20.48862866	     -7.49999987	    -27.16635446	     -0.26998619	     -7.42983719	    -10.71762872	     -2.63422593	    -38.31903620	     53.67161927	     80.39703442	      1.29368759	     -5.40963463	    -16.55667481	     24.16019168	     71.20296601
      1.18833330	    -26.58844214	      2.25174636	     -3.05766263	      0.24547115	      0.69217400	     -0.05131610	     76.99359057	     -1.33213743	      3.51281331	     86.78035395	      1.51460290	     27.94505661	    -15.02118264	     -7.49999987	     78.36484934	     -2.80182114	      8.25158694	     83.94699057	      1.46515138	     21.50678400	    -21.07667967	     -7.49999987	    -26.17563265	     -0.33512526	     -7.46760468	    -10.64392003	     -2.52754387	    -38.67824593	     52.96862678	     80.31865639	      1.29295556	     -5.29547642	    -17.03990672	     22.83990307	     70.83352754
